<svg width="30" height="30" viewBox="0 0 30 30" fill="none" xmlns="http://www.w3.org/2000/svg">
<path d="M15 2.5C12.5277 2.5 10.111 3.23311 8.05538 4.60663C5.99976 5.98015 4.39761 7.93238 3.45151 10.2165C2.50542 12.5005 2.25787 15.0139 2.74019 17.4386C3.2225 19.8634 4.41301 22.0907 6.16117 23.8388C7.90933 25.587 10.1366 26.7775 12.5614 27.2598C14.9861 27.7421 17.4995 27.4946 19.7835 26.5485C22.0676 25.6024 24.0199 24.0002 25.3934 21.9446C26.7669 19.889 27.5 17.4723 27.5 15C27.5 13.3585 27.1767 11.733 26.5485 10.2165C25.9203 8.69989 24.9996 7.3219 23.8388 6.16117C22.6781 5.00043 21.3001 4.07969 19.7835 3.45151C18.267 2.82332 16.6415 2.5 15 2.5V2.5ZM20.375 12.0125L14.6625 19.5125C14.5461 19.6638 14.3965 19.7864 14.2253 19.8709C14.0542 19.9554 13.8659 19.9995 13.675 20C13.4851 20.001 13.2975 19.9588 13.1264 19.8765C12.9553 19.7942 12.8052 19.674 12.6875 19.525L9.63751 15.6375C9.43362 15.3756 9.34213 15.0434 9.38315 14.7141C9.42417 14.3847 9.59435 14.0851 9.85626 13.8812C10.1182 13.6774 10.4503 13.5859 10.7797 13.6269C11.109 13.6679 11.4086 13.8381 11.6125 14.1L13.65 16.7L18.375 10.45C18.4751 10.3187 18.6002 10.2084 18.7429 10.1254C18.8857 10.0424 19.0434 9.98828 19.2071 9.96622C19.3707 9.94417 19.5371 9.95457 19.6968 9.99682C19.8564 10.0391 20.0062 10.1124 20.1375 10.2125C20.2688 10.3126 20.3791 10.4377 20.4621 10.5804C20.5452 10.7232 20.5992 10.8809 20.6213 11.0446C20.6433 11.2082 20.6329 11.3746 20.5907 11.5343C20.5484 11.6939 20.4751 11.8437 20.375 11.975V12.0125Z" fill="#00A3FF"/>
</svg>
