<svg width="500" height="500" viewBox="0 0 500 500" fill="none" xmlns="http://www.w3.org/2000/svg">
<g clip-path="url(#clip0_117_161)">
<path d="M250.001 500C387.953 500 500.001 387.952 500.001 249.999C500.001 112.047 387.952 0 250.001 0C112.049 0 0 112.048 0 250.001C0 387.953 112.048 500 250.001 500ZM250.001 36.1446C367.771 36.1446 463.856 132.229 463.856 250.001C463.856 367.772 367.771 463.855 250.001 463.855C132.23 463.855 36.1446 367.771 36.1446 250.001C36.1446 132.23 132.229 36.1446 250.001 36.1446Z" fill="black"/>
<path d="M174.699 209.036C182.228 209.036 189.457 206.024 194.879 200.603C206.023 189.458 206.023 171.386 194.879 160.241C189.457 154.819 182.228 151.807 174.699 151.807C167.169 151.807 159.94 154.819 154.518 160.241C143.374 171.385 143.374 189.457 154.518 200.603C159.94 206.024 167.169 209.036 174.699 209.036Z" fill="black"/>
<path d="M318.073 209.036C325.603 209.036 332.831 206.024 338.253 200.603C349.397 189.458 349.397 171.386 338.253 160.241C332.831 154.819 325.603 151.807 318.073 151.807C310.543 151.807 303.314 154.819 297.892 160.241C286.748 171.385 286.748 189.457 297.892 200.603C303.314 206.024 310.241 209.036 318.073 209.036Z" fill="black"/>
<path d="M167.169 349.398C167.771 347.591 179.518 308.736 245.482 308.736C313.554 308.736 332.832 350.001 333.434 351.506C336.445 358.434 343.073 362.65 350 362.65C352.41 362.65 354.518 362.35 356.928 361.144C366.265 357.229 370.482 346.686 366.567 337.65C365.362 334.939 338.555 272.59 245.181 272.59C150.001 272.59 132.53 337.65 131.929 340.361L149.398 344.879L167.169 349.398Z" fill="black"/>
</g>
<defs>
<clipPath id="clip0_117_161">
<rect width="500" height="500" fill="white"/>
</clipPath>
</defs>
</svg>
